<mxfile host="Electron" agent="Mozilla/5.0 (Windows NT 10.0; Win64; x64) AppleWebKit/537.36 (KHTML, like Gecko) draw.io/27.0.9 Chrome/134.0.6998.205 Electron/35.4.0 Safari/537.36" version="27.0.9">
  <diagram name="Page-1" id="6rceiJwF0CG-ykA7Rf4V">
    <mxGraphModel dx="570" dy="340" grid="1" gridSize="10" guides="1" tooltips="1" connect="1" arrows="1" fold="1" page="1" pageScale="1" pageWidth="850" pageHeight="1100" math="0" shadow="0">
      <root>
        <mxCell id="0" />
        <mxCell id="1" parent="0" />
        <mxCell id="yUU2gIQZDjhn9MsN2WR--1" value="return &amp;lt;Child /&amp;gt;" style="rounded=1;whiteSpace=wrap;html=1;" vertex="1" parent="1">
          <mxGeometry x="330" y="350" width="120" height="60" as="geometry" />
        </mxCell>
        <mxCell id="yUU2gIQZDjhn9MsN2WR--2" value="&lt;font style=&quot;font-size: 16px;&quot;&gt;App.jsx&lt;/font&gt;" style="text;strokeColor=none;fillColor=none;html=1;fontSize=24;fontStyle=1;verticalAlign=middle;align=center;" vertex="1" parent="1">
          <mxGeometry x="340" y="310" width="100" height="40" as="geometry" />
        </mxCell>
        <mxCell id="yUU2gIQZDjhn9MsN2WR--5" value="" style="edgeStyle=orthogonalEdgeStyle;rounded=0;orthogonalLoop=1;jettySize=auto;html=1;entryX=0.5;entryY=1;entryDx=0;entryDy=0;" edge="1" parent="1" source="yUU2gIQZDjhn9MsN2WR--3" target="yUU2gIQZDjhn9MsN2WR--1">
          <mxGeometry relative="1" as="geometry" />
        </mxCell>
        <mxCell id="yUU2gIQZDjhn9MsN2WR--3" value="props={someData}" style="rounded=1;whiteSpace=wrap;html=1;" vertex="1" parent="1">
          <mxGeometry x="330" y="460" width="120" height="60" as="geometry" />
        </mxCell>
        <mxCell id="yUU2gIQZDjhn9MsN2WR--4" value="&lt;font style=&quot;font-size: 16px;&quot;&gt;Child.jsx&lt;/font&gt;" style="text;strokeColor=none;fillColor=none;html=1;fontSize=24;fontStyle=1;verticalAlign=middle;align=center;" vertex="1" parent="1">
          <mxGeometry x="340" y="520" width="100" height="40" as="geometry" />
        </mxCell>
        <mxCell id="yUU2gIQZDjhn9MsN2WR--6" value="" style="endArrow=none;html=1;rounded=0;strokeWidth=4;strokeColor=#FF0000;" edge="1" parent="1">
          <mxGeometry width="50" height="50" relative="1" as="geometry">
            <mxPoint x="380" y="440" as="sourcePoint" />
            <mxPoint x="400" y="420" as="targetPoint" />
          </mxGeometry>
        </mxCell>
        <mxCell id="yUU2gIQZDjhn9MsN2WR--7" value="" style="endArrow=none;html=1;rounded=0;strokeWidth=4;strokeColor=#FF0000;" edge="1" parent="1">
          <mxGeometry width="50" height="50" relative="1" as="geometry">
            <mxPoint x="400" y="440" as="sourcePoint" />
            <mxPoint x="380" y="420" as="targetPoint" />
          </mxGeometry>
        </mxCell>
      </root>
    </mxGraphModel>
  </diagram>
</mxfile>
